<?xml version="1.0" encoding="UTF-8" standalone="no"?>
<svg
   xmlns:dc="http://purl.org/dc/elements/1.1/"
   xmlns:cc="http://creativecommons.org/ns#"
   xmlns:rdf="http://www.w3.org/1999/02/22-rdf-syntax-ns#"
   xmlns:svg="http://www.w3.org/2000/svg"
   xmlns="http://www.w3.org/2000/svg"
   xmlns:sodipodi="http://sodipodi.sourceforge.net/DTD/sodipodi-0.dtd"
   xmlns:inkscape="http://www.inkscape.org/namespaces/inkscape"
   version="1.1"
   id="Layer_1"
   x="0px"
   y="0px"
   width="212px"
   height="212px"
   viewBox="0 0 212 212"
   enable-background="new 0 0 212 212"
   xml:space="preserve"
   inkscape:version="0.91 r13725"
   sodipodi:docname="avatar.svg"><metadata
     id="metadata4232"><rdf:RDF><cc:Work
         rdf:about=""><dc:format>image/svg+xml</dc:format><dc:type
           rdf:resource="http://purl.org/dc/dcmitype/StillImage" /><dc:title></dc:title></cc:Work></rdf:RDF></metadata><defs
     id="defs4230" /><sodipodi:namedview
     pagecolor="#ffffff"
     bordercolor="#666666"
     borderopacity="1"
     objecttolerance="10"
     gridtolerance="10"
     guidetolerance="10"
     inkscape:pageopacity="0"
     inkscape:pageshadow="2"
     inkscape:window-width="1855"
     inkscape:window-height="1176"
     id="namedview4228"
     showgrid="false"
     inkscape:zoom="4.9009434"
     inkscape:cx="106"
     inkscape:cy="106"
     inkscape:window-x="65"
     inkscape:window-y="24"
     inkscape:window-maximized="1"
     inkscape:current-layer="g4222" /><path
     fill-rule="evenodd"
     clip-rule="evenodd"
     fill="#DFE5E7"
     d="M105.946,0.25C164.318,0.25,211.64,47.596,211.64,106  c0,58.404-47.322,105.75-105.695,105.75C47.571,211.75,0.25,164.404,0.25,106C0.25,47.596,47.571,0.25,105.946,0.25z"
     id="path4220"
     style="fill:#cccccc" /><g
     id="g4222"><path
       fill="#FFFFFF"
       d="M173.561,171.615c-0.601-0.915-1.287-1.907-2.065-2.955c-0.777-1.049-1.645-2.155-2.608-3.299   c-0.964-1.144-2.024-2.326-3.184-3.527c-1.741-1.802-3.71-3.646-5.924-5.47c-2.952-2.431-6.339-4.824-10.204-7.026   c-1.877-1.07-3.873-2.092-5.98-3.055c-0.062-0.028-0.118-0.059-0.18-0.087c-9.792-4.44-22.106-7.529-37.416-7.529   c-15.31,0-27.624,3.089-37.416,7.529c-0.338,0.153-0.653,0.318-0.985,0.474c-1.431,0.674-2.806,1.376-4.128,2.101   c-0.716,0.393-1.417,0.792-2.101,1.197c-3.421,2.027-6.475,4.191-9.15,6.395c-2.213,1.823-4.182,3.668-5.924,5.47   c-1.161,1.201-2.22,2.384-3.184,3.527c-0.964,1.144-1.832,2.25-2.609,3.299c-0.778,1.049-1.464,2.04-2.065,2.955   c-0.557,0.848-1.033,1.622-1.447,2.324c-0.033,0.056-0.073,0.119-0.104,0.174c-0.435,0.744-0.79,1.392-1.07,1.926   c-0.559,1.068-0.818,1.678-0.818,1.678v0.398c18.285,17.927,43.322,28.985,70.945,28.985c27.678,0,52.761-11.103,71.055-29.095   v-0.289c0,0-0.619-1.45-1.992-3.778C174.594,173.238,174.117,172.463,173.561,171.615z"
       id="path4224" /><path
       d="m 106.002,127.5 c 2.645,0 5.212,-0.253 7.68,-0.737 1.234,-0.242 2.443,-0.542 3.624,-0.896 1.772,-0.532 3.482,-1.188 5.12,-1.958 2.184,-1.027 4.242,-2.258 6.15,-3.67 2.863,-2.119 5.39,-4.646 7.509,-7.509 0.706,-0.954 1.367,-1.945 1.98,-2.971 0.919,-1.539 1.729,-3.155 2.422,-4.84 0.462,-1.123 0.872,-2.277 1.226,-3.458 0.177,-0.591 0.341,-1.188 0.49,-1.792 0.299,-1.208 0.542,-2.443 0.725,-3.701 0.275,-1.887 0.417,-3.827 0.417,-5.811 0,-1.984 -0.142,-3.925 -0.417,-5.811 -0.184,-1.258 -0.426,-2.493 -0.725,-3.701 -0.15,-0.604 -0.313,-1.202 -0.49,-1.793 -0.354,-1.181 -0.764,-2.335 -1.226,-3.458 -0.693,-1.685 -1.504,-3.301 -2.422,-4.84 -0.613,-1.026 -1.274,-2.017 -1.98,-2.971 -2.119,-2.863 -4.646,-5.39 -7.509,-7.509 -1.909,-1.412 -3.966,-2.643 -6.15,-3.67 -1.638,-0.77 -3.348,-1.426 -5.12,-1.958 -1.181,-0.355 -2.39,-0.655 -3.624,-0.896 -2.468,-0.484 -5.035,-0.737 -7.68,-0.737 -21.162,0 -37.345,16.183 -37.345,37.345 0,21.159 16.183,37.342 37.345,37.342 z"
       id="path4226"
       inkscape:connector-curvature="0"
       style="fill:#ffffff" /></g></svg>