<svg height="24" viewBox="0 -960 960 960" width="24" fill="#5f6368" xmlns="http://www.w3.org/2000/svg"><path d="M197-706l-84-85 56-57 85 85zM791-112l-85-85 57-57 84 85zM0-440v-80h120v80zM840-440v-80h120v80zM169-113l-57-56 85-85 57 57zM763-706l-57-57 85-84 57 56zM440 0v-120h80V0zM440-840v-120h80v120zM743-380a766.09 766.09 0 01-39.5-11c-13-4-25.833-8.667-38.5-14 5.333-12 9.167-24.167 11.5-36.5 2.333-12.333 3.5-25.167 3.5-38.5 0-55.333-19.5-102.5-58.5-141.5S535.333-680 480-680c-13.333 0-26.167 1.167-38.5 3.5-12.333 2.333-24.5 6.167-36.5 11.5-5.333-12.667-9.833-25.333-13.5-38a1098.034 1098.034 0 01-10.5-39c16-6 32.333-10.5 49-13.5s33.667-4.5 51-4.5c78 0 144.167 27.167 198.5 81.5S761-558 761-480c0 17.333-1.5 34.333-4.5 51s-7.5 33-13.5 49z" fill="orange"/><path d="M453-452c34 34 72 63.167 114 87.5s87 43.167 135 56.5c-26.667 34-59.333 60.5-98 79.5S524.333-200 481-200c-78 0-144.167-27.167-198.5-81.5S201-402 201-480c0-43.333 9.5-84.333 28.5-123s45.5-71.333 79.5-98c13.333 48 32.167 93 56.5 135S419-486 453-452z" fill="#0c80d6"/></svg>